<svg width="1800" height="500" viewBox="0 0 1800 500" fill="none" xmlns="http://www.w3.org/2000/svg">
<rect width="1800" height="500" fill="#F5F5F5"/>
<g id="Collab vs ownership">
<rect width="1800" height="500" fill="#EFF3F6"/>
<path id="Polygon 1" d="M929.226 332.518C930.887 329.64 935.041 329.64 936.702 332.518L995.891 435.036C997.552 437.914 995.476 441.511 992.153 441.511H873.775C870.452 441.511 868.376 437.914 870.037 435.036L929.226 332.518Z" fill="#D9D9D9"/>
<path id="Line 4" d="M489.035 373.116L1375.36 245.935" stroke="#D9D9D9" stroke-width="5.7554" stroke-linecap="round"/>
<g id="Frame 36762">
<rect x="481.166" y="147.626" width="197.842" height="197.842" rx="79.1367" fill="#2078F0"/>
<path id="Be a good collaborator" d="M539.558 233.334C539.558 234.209 539.328 234.961 538.868 235.59C538.423 236.219 537.816 236.703 537.049 237.04C536.282 237.378 535.438 237.547 534.517 237.547H526.712V221.201H535.138C535.906 221.201 536.566 221.409 537.118 221.823C537.686 222.222 538.116 222.744 538.407 223.388C538.714 224.018 538.868 224.678 538.868 225.368C538.868 226.166 538.661 226.918 538.246 227.624C537.847 228.315 537.272 228.829 536.52 229.167C537.456 229.443 538.193 229.95 538.73 230.686C539.282 231.408 539.558 232.29 539.558 233.334ZM536.911 232.85C536.911 232.39 536.811 231.975 536.612 231.607C536.428 231.223 536.167 230.917 535.829 230.686C535.507 230.441 535.123 230.318 534.678 230.318H529.291V235.314H534.517C534.977 235.314 535.384 235.206 535.737 234.991C536.105 234.761 536.389 234.462 536.589 234.093C536.804 233.71 536.911 233.295 536.911 232.85ZM529.291 223.434V228.246H534.033C534.463 228.246 534.847 228.146 535.184 227.947C535.522 227.732 535.791 227.448 535.99 227.095C536.19 226.727 536.289 226.312 536.289 225.852C536.289 225.376 536.197 224.962 536.013 224.609C535.829 224.24 535.576 223.956 535.253 223.757C534.946 223.542 534.586 223.434 534.171 223.434H529.291ZM547.381 237.777C546.445 237.777 545.593 237.616 544.826 237.293C544.074 236.956 543.422 236.503 542.869 235.935C542.317 235.352 541.887 234.692 541.58 233.955C541.288 233.203 541.142 232.405 541.142 231.561C541.142 230.425 541.403 229.389 541.925 228.453C542.447 227.502 543.176 226.742 544.112 226.174C545.048 225.591 546.146 225.299 547.404 225.299C548.663 225.299 549.745 225.591 550.65 226.174C551.571 226.742 552.285 227.494 552.791 228.43C553.298 229.366 553.551 230.372 553.551 231.446C553.551 231.63 553.543 231.807 553.528 231.975C553.513 232.129 553.497 232.259 553.482 232.367H543.836C543.882 233.073 544.074 233.694 544.412 234.232C544.765 234.753 545.21 235.168 545.747 235.475C546.284 235.766 546.859 235.912 547.473 235.912C548.149 235.912 548.786 235.743 549.384 235.406C549.998 235.068 550.412 234.623 550.627 234.07L552.791 234.692C552.53 235.275 552.131 235.805 551.594 236.281C551.072 236.741 550.451 237.109 549.729 237.386C549.008 237.646 548.225 237.777 547.381 237.777ZM543.767 230.686H551.042C550.996 229.996 550.796 229.389 550.443 228.868C550.106 228.33 549.668 227.916 549.131 227.624C548.609 227.317 548.026 227.164 547.381 227.164C546.752 227.164 546.169 227.317 545.632 227.624C545.11 227.916 544.68 228.33 544.342 228.868C544.005 229.389 543.813 229.996 543.767 230.686ZM560.43 234.024C560.43 233.257 560.645 232.589 561.074 232.022C561.52 231.438 562.126 230.993 562.893 230.686C563.661 230.364 564.551 230.203 565.564 230.203C566.101 230.203 566.646 230.241 567.198 230.318C567.766 230.395 568.265 230.517 568.695 230.686V229.927C568.695 229.082 568.441 228.423 567.935 227.947C567.428 227.471 566.699 227.233 565.748 227.233C565.073 227.233 564.436 227.356 563.837 227.601C563.238 227.832 562.602 228.162 561.926 228.591L561.074 226.888C561.873 226.351 562.671 225.952 563.469 225.691C564.282 225.43 565.134 225.299 566.024 225.299C567.636 225.299 568.902 225.729 569.823 226.588C570.759 227.433 571.227 228.637 571.227 230.203V234.692C571.227 234.984 571.273 235.191 571.365 235.314C571.473 235.436 571.649 235.505 571.895 235.521V237.547C571.664 237.593 571.457 237.623 571.273 237.639C571.089 237.654 570.935 237.662 570.813 237.662C570.275 237.662 569.869 237.531 569.592 237.27C569.316 237.01 569.155 236.703 569.109 236.35L569.04 235.659C568.518 236.334 567.85 236.856 567.037 237.224C566.224 237.593 565.403 237.777 564.574 237.777C563.776 237.777 563.062 237.616 562.433 237.293C561.803 236.956 561.312 236.503 560.959 235.935C560.606 235.367 560.43 234.73 560.43 234.024ZM568.096 234.761C568.28 234.562 568.426 234.362 568.533 234.163C568.641 233.963 568.695 233.787 568.695 233.633V232.252C568.265 232.083 567.812 231.96 567.336 231.883C566.861 231.791 566.392 231.745 565.932 231.745C565.011 231.745 564.259 231.929 563.676 232.298C563.108 232.666 562.824 233.173 562.824 233.817C562.824 234.17 562.916 234.508 563.1 234.83C563.3 235.152 563.576 235.413 563.929 235.613C564.297 235.812 564.75 235.912 565.287 235.912C565.84 235.912 566.369 235.805 566.876 235.59C567.382 235.375 567.789 235.099 568.096 234.761ZM584.753 237.662C583.939 237.662 583.195 237.501 582.52 237.178C581.844 236.841 581.261 236.388 580.77 235.82C580.294 235.252 579.918 234.6 579.642 233.863C579.381 233.127 579.251 232.352 579.251 231.538C579.251 230.679 579.389 229.873 579.665 229.121C579.941 228.369 580.325 227.709 580.816 227.141C581.322 226.558 581.913 226.105 582.589 225.783C583.264 225.46 584.016 225.299 584.845 225.299C585.812 225.299 586.656 225.529 587.377 225.99C588.114 226.45 588.72 227.049 589.196 227.786V225.506H591.429V237.201C591.429 238.368 591.145 239.358 590.577 240.171C590.025 240.985 589.265 241.606 588.298 242.036C587.331 242.466 586.241 242.681 585.029 242.681C583.694 242.681 582.589 242.45 581.714 241.99C580.839 241.529 580.095 240.9 579.481 240.102L580.908 238.767C581.369 239.411 581.959 239.903 582.681 240.24C583.417 240.578 584.2 240.747 585.029 240.747C585.72 240.747 586.357 240.616 586.94 240.355C587.538 240.11 588.014 239.718 588.367 239.181C588.72 238.659 588.897 237.999 588.897 237.201V235.36C588.467 236.081 587.876 236.649 587.124 237.063C586.372 237.462 585.581 237.662 584.753 237.662ZM585.581 235.613C585.965 235.613 586.334 235.552 586.687 235.429C587.04 235.291 587.362 235.114 587.653 234.899C587.96 234.669 588.221 234.416 588.436 234.14C588.651 233.848 588.804 233.541 588.897 233.219V230.065C588.697 229.543 588.413 229.09 588.045 228.706C587.676 228.307 587.262 228 586.802 227.786C586.341 227.571 585.873 227.463 585.397 227.463C584.845 227.463 584.346 227.586 583.901 227.832C583.471 228.062 583.103 228.376 582.796 228.775C582.489 229.159 582.251 229.597 582.082 230.088C581.913 230.579 581.829 231.085 581.829 231.607C581.829 232.16 581.921 232.674 582.105 233.15C582.305 233.625 582.573 234.055 582.911 234.439C583.249 234.807 583.648 235.099 584.108 235.314C584.569 235.513 585.06 235.613 585.581 235.613ZM599.876 237.777C598.924 237.777 598.072 237.616 597.32 237.293C596.568 236.956 595.916 236.495 595.363 235.912C594.826 235.329 594.412 234.669 594.12 233.932C593.829 233.18 593.683 232.382 593.683 231.538C593.683 230.694 593.829 229.896 594.12 229.144C594.412 228.392 594.826 227.732 595.363 227.164C595.916 226.581 596.568 226.128 597.32 225.806C598.088 225.468 598.94 225.299 599.876 225.299C600.812 225.299 601.656 225.468 602.408 225.806C603.175 226.128 603.828 226.581 604.365 227.164C604.917 227.732 605.34 228.392 605.631 229.144C605.923 229.896 606.069 230.694 606.069 231.538C606.069 232.382 605.923 233.18 605.631 233.932C605.34 234.669 604.917 235.329 604.365 235.912C603.828 236.495 603.175 236.956 602.408 237.293C601.656 237.616 600.812 237.777 599.876 237.777ZM596.284 231.561C596.284 232.328 596.446 233.019 596.768 233.633C597.09 234.247 597.52 234.73 598.057 235.083C598.594 235.436 599.2 235.613 599.876 235.613C600.536 235.613 601.134 235.436 601.671 235.083C602.224 234.715 602.661 234.224 602.984 233.61C603.306 232.981 603.467 232.29 603.467 231.538C603.467 230.771 603.306 230.08 602.984 229.466C602.661 228.852 602.224 228.369 601.671 228.016C601.134 227.647 600.536 227.463 599.876 227.463C599.2 227.463 598.594 227.647 598.057 228.016C597.52 228.384 597.09 228.875 596.768 229.489C596.446 230.088 596.284 230.778 596.284 231.561ZM613.725 237.777C612.773 237.777 611.921 237.616 611.169 237.293C610.417 236.956 609.765 236.495 609.212 235.912C608.675 235.329 608.261 234.669 607.969 233.932C607.678 233.18 607.532 232.382 607.532 231.538C607.532 230.694 607.678 229.896 607.969 229.144C608.261 228.392 608.675 227.732 609.212 227.164C609.765 226.581 610.417 226.128 611.169 225.806C611.937 225.468 612.788 225.299 613.725 225.299C614.661 225.299 615.505 225.468 616.257 225.806C617.024 226.128 617.677 226.581 618.214 227.164C618.766 227.732 619.188 228.392 619.48 229.144C619.772 229.896 619.917 230.694 619.917 231.538C619.917 232.382 619.772 233.18 619.48 233.932C619.188 234.669 618.766 235.329 618.214 235.912C617.677 236.495 617.024 236.956 616.257 237.293C615.505 237.616 614.661 237.777 613.725 237.777ZM610.133 231.561C610.133 232.328 610.294 233.019 610.617 233.633C610.939 234.247 611.369 234.73 611.906 235.083C612.443 235.436 613.049 235.613 613.725 235.613C614.385 235.613 614.983 235.436 615.52 235.083C616.073 234.715 616.51 234.224 616.833 233.61C617.155 232.981 617.316 232.29 617.316 231.538C617.316 230.771 617.155 230.08 616.833 229.466C616.51 228.852 616.073 228.369 615.52 228.016C614.983 227.647 614.385 227.463 613.725 227.463C613.049 227.463 612.443 227.647 611.906 228.016C611.369 228.384 610.939 228.875 610.617 229.489C610.294 230.088 610.133 230.778 610.133 231.561ZM621.404 231.538C621.404 230.387 621.634 229.343 622.094 228.407C622.57 227.456 623.215 226.704 624.028 226.151C624.842 225.583 625.778 225.299 626.837 225.299C627.758 225.299 628.587 225.537 629.323 226.013C630.075 226.489 630.658 227.08 631.073 227.786V220.741H633.605V234.692C633.605 234.984 633.659 235.191 633.766 235.314C633.874 235.436 634.05 235.505 634.296 235.521V237.547C633.82 237.623 633.452 237.662 633.191 237.662C632.715 237.662 632.308 237.524 631.971 237.247C631.648 236.971 631.48 236.641 631.464 236.258L631.441 235.36C630.981 236.127 630.359 236.726 629.576 237.155C628.794 237.57 627.98 237.777 627.136 237.777C626.307 237.777 625.54 237.616 624.834 237.293C624.143 236.971 623.537 236.518 623.015 235.935C622.509 235.352 622.11 234.684 621.818 233.932C621.542 233.18 621.404 232.382 621.404 231.538ZM631.073 233.219V230.065C630.904 229.574 630.628 229.136 630.244 228.752C629.876 228.353 629.454 228.039 628.978 227.809C628.517 227.578 628.057 227.463 627.597 227.463C627.059 227.463 626.568 227.578 626.123 227.809C625.693 228.039 625.317 228.346 624.995 228.729C624.688 229.113 624.45 229.551 624.281 230.042C624.113 230.533 624.028 231.047 624.028 231.584C624.028 232.137 624.12 232.658 624.304 233.15C624.489 233.625 624.75 234.055 625.087 234.439C625.44 234.807 625.839 235.099 626.284 235.314C626.745 235.513 627.244 235.613 627.781 235.613C628.118 235.613 628.456 235.552 628.794 235.429C629.147 235.306 629.477 235.137 629.784 234.922C630.106 234.707 630.375 234.454 630.589 234.163C630.82 233.871 630.981 233.556 631.073 233.219ZM520.066 272.777C519.129 272.777 518.278 272.616 517.51 272.293C516.758 271.956 516.106 271.495 515.553 270.912C515.001 270.329 514.571 269.661 514.264 268.909C513.973 268.157 513.827 267.359 513.827 266.515C513.827 265.379 514.08 264.343 514.587 263.407C515.108 262.471 515.83 261.719 516.751 261.151C517.687 260.583 518.792 260.299 520.066 260.299C521.293 260.299 522.36 260.575 523.266 261.128C524.187 261.665 524.862 262.387 525.292 263.292L522.828 264.075C522.552 263.568 522.161 263.177 521.654 262.901C521.163 262.609 520.618 262.463 520.02 262.463C519.344 262.463 518.73 262.64 518.178 262.993C517.641 263.33 517.211 263.806 516.889 264.42C516.582 265.019 516.428 265.717 516.428 266.515C516.428 267.282 516.589 267.981 516.912 268.61C517.234 269.224 517.664 269.715 518.201 270.083C518.753 270.436 519.367 270.613 520.043 270.613C520.457 270.613 520.856 270.544 521.24 270.406C521.639 270.252 521.984 270.053 522.276 269.807C522.567 269.546 522.775 269.262 522.897 268.955L525.384 269.692C525.123 270.291 524.731 270.82 524.21 271.281C523.703 271.741 523.097 272.109 522.391 272.386C521.7 272.646 520.925 272.777 520.066 272.777ZM532.767 272.777C531.815 272.777 530.964 272.616 530.212 272.293C529.459 271.956 528.807 271.495 528.255 270.912C527.718 270.329 527.303 269.669 527.012 268.932C526.72 268.18 526.574 267.382 526.574 266.538C526.574 265.694 526.72 264.896 527.012 264.144C527.303 263.392 527.718 262.732 528.255 262.164C528.807 261.581 529.459 261.128 530.212 260.806C530.979 260.468 531.831 260.299 532.767 260.299C533.703 260.299 534.547 260.468 535.299 260.806C536.067 261.128 536.719 261.581 537.256 262.164C537.809 262.732 538.231 263.392 538.522 264.144C538.814 264.896 538.96 265.694 538.96 266.538C538.96 267.382 538.814 268.18 538.522 268.932C538.231 269.669 537.809 270.329 537.256 270.912C536.719 271.495 536.067 271.956 535.299 272.293C534.547 272.616 533.703 272.777 532.767 272.777ZM529.176 266.561C529.176 267.328 529.337 268.019 529.659 268.633C529.981 269.247 530.411 269.73 530.948 270.083C531.485 270.436 532.092 270.613 532.767 270.613C533.427 270.613 534.025 270.436 534.563 270.083C535.115 269.715 535.553 269.224 535.875 268.61C536.197 267.981 536.358 267.29 536.358 266.538C536.358 265.771 536.197 265.08 535.875 264.466C535.553 263.852 535.115 263.369 534.563 263.016C534.025 262.647 533.427 262.463 532.767 262.463C532.092 262.463 531.485 262.647 530.948 263.016C530.411 263.384 529.981 263.875 529.659 264.489C529.337 265.088 529.176 265.778 529.176 266.561ZM541.229 255.741H543.761V269.07C543.761 269.684 543.853 270.076 544.037 270.245C544.222 270.413 544.452 270.498 544.728 270.498C545.035 270.498 545.319 270.467 545.58 270.406C545.856 270.344 546.094 270.268 546.294 270.175L546.662 272.178C546.294 272.332 545.856 272.462 545.35 272.57C544.843 272.677 544.39 272.731 543.991 272.731C543.132 272.731 542.457 272.493 541.965 272.017C541.474 271.526 541.229 270.851 541.229 269.991V255.741ZM548.153 255.741H550.686V269.07C550.686 269.684 550.778 270.076 550.962 270.245C551.146 270.413 551.376 270.498 551.653 270.498C551.959 270.498 552.243 270.467 552.504 270.406C552.781 270.344 553.018 270.268 553.218 270.175L553.586 272.178C553.218 272.332 552.781 272.462 552.274 272.57C551.768 272.677 551.315 272.731 550.916 272.731C550.056 272.731 549.381 272.493 548.89 272.017C548.399 271.526 548.153 270.851 548.153 269.991V255.741ZM554.18 269.024C554.18 268.257 554.395 267.589 554.824 267.022C555.27 266.438 555.876 265.993 556.643 265.686C557.411 265.364 558.301 265.203 559.314 265.203C559.851 265.203 560.396 265.241 560.948 265.318C561.516 265.395 562.015 265.517 562.445 265.686V264.927C562.445 264.082 562.191 263.423 561.685 262.947C561.178 262.471 560.449 262.233 559.498 262.233C558.823 262.233 558.186 262.356 557.587 262.601C556.988 262.832 556.352 263.162 555.676 263.591L554.824 261.888C555.623 261.351 556.421 260.952 557.219 260.691C558.032 260.43 558.884 260.299 559.774 260.299C561.386 260.299 562.652 260.729 563.573 261.588C564.509 262.433 564.977 263.637 564.977 265.203V269.692C564.977 269.984 565.023 270.191 565.115 270.314C565.223 270.436 565.399 270.505 565.645 270.521V272.547C565.414 272.593 565.207 272.623 565.023 272.639C564.839 272.654 564.685 272.662 564.563 272.662C564.025 272.662 563.619 272.531 563.342 272.27C563.066 272.01 562.905 271.703 562.859 271.35L562.79 270.659C562.268 271.334 561.6 271.856 560.787 272.224C559.974 272.593 559.153 272.777 558.324 272.777C557.526 272.777 556.812 272.616 556.183 272.293C555.553 271.956 555.062 271.503 554.709 270.935C554.356 270.367 554.18 269.73 554.18 269.024ZM561.846 269.761C562.03 269.562 562.176 269.362 562.283 269.163C562.391 268.963 562.445 268.787 562.445 268.633V267.252C562.015 267.083 561.562 266.96 561.086 266.883C560.611 266.791 560.142 266.745 559.682 266.745C558.761 266.745 558.009 266.929 557.426 267.298C556.858 267.666 556.574 268.173 556.574 268.817C556.574 269.17 556.666 269.508 556.85 269.83C557.05 270.152 557.326 270.413 557.679 270.613C558.047 270.812 558.5 270.912 559.037 270.912C559.59 270.912 560.119 270.805 560.626 270.59C561.132 270.375 561.539 270.099 561.846 269.761ZM574.541 272.777C573.621 272.777 572.784 272.562 572.032 272.132C571.295 271.687 570.712 271.096 570.282 270.36V272.547H568.049V255.741H570.582V262.786C571.057 262.018 571.648 261.412 572.354 260.967C573.076 260.522 573.92 260.299 574.887 260.299C575.685 260.299 576.414 260.468 577.074 260.806C577.734 261.143 578.294 261.604 578.754 262.187C579.23 262.77 579.591 263.438 579.836 264.19C580.097 264.942 580.228 265.74 580.228 266.584C580.228 267.428 580.082 268.226 579.79 268.978C579.514 269.73 579.115 270.39 578.593 270.958C578.071 271.526 577.465 271.971 576.774 272.293C576.099 272.616 575.355 272.777 574.541 272.777ZM573.874 270.613C574.426 270.613 574.933 270.505 575.393 270.291C575.854 270.06 576.253 269.761 576.59 269.393C576.928 269.024 577.181 268.595 577.35 268.104C577.534 267.612 577.626 267.106 577.626 266.584C577.626 265.863 577.473 265.187 577.166 264.558C576.874 263.929 576.46 263.423 575.923 263.039C575.385 262.655 574.764 262.463 574.058 262.463C573.551 262.463 573.076 262.586 572.631 262.832C572.185 263.062 571.786 263.376 571.433 263.775C571.096 264.159 570.812 264.589 570.582 265.065V268.242C570.674 268.595 570.835 268.917 571.065 269.209C571.295 269.485 571.564 269.73 571.871 269.945C572.178 270.145 572.508 270.306 572.861 270.429C573.214 270.552 573.551 270.613 573.874 270.613ZM587.915 272.777C586.964 272.777 586.112 272.616 585.36 272.293C584.608 271.956 583.956 271.495 583.403 270.912C582.866 270.329 582.452 269.669 582.16 268.932C581.868 268.18 581.722 267.382 581.722 266.538C581.722 265.694 581.868 264.896 582.16 264.144C582.452 263.392 582.866 262.732 583.403 262.164C583.956 261.581 584.608 261.128 585.36 260.806C586.127 260.468 586.979 260.299 587.915 260.299C588.852 260.299 589.696 260.468 590.448 260.806C591.215 261.128 591.867 261.581 592.405 262.164C592.957 262.732 593.379 263.392 593.671 264.144C593.962 264.896 594.108 265.694 594.108 266.538C594.108 267.382 593.962 268.18 593.671 268.932C593.379 269.669 592.957 270.329 592.405 270.912C591.867 271.495 591.215 271.956 590.448 272.293C589.696 272.616 588.852 272.777 587.915 272.777ZM584.324 266.561C584.324 267.328 584.485 268.019 584.807 268.633C585.13 269.247 585.559 269.73 586.097 270.083C586.634 270.436 587.24 270.613 587.915 270.613C588.575 270.613 589.174 270.436 589.711 270.083C590.263 269.715 590.701 269.224 591.023 268.61C591.346 267.981 591.507 267.29 591.507 266.538C591.507 265.771 591.346 265.08 591.023 264.466C590.701 263.852 590.263 263.369 589.711 263.016C589.174 262.647 588.575 262.463 587.915 262.463C587.24 262.463 586.634 262.647 586.097 263.016C585.559 263.384 585.13 263.875 584.807 264.489C584.485 265.088 584.324 265.778 584.324 266.561ZM603.122 262.693C602.14 262.709 601.265 262.931 600.498 263.361C599.746 263.791 599.209 264.397 598.887 265.18V272.547H596.354V260.506H598.702V263.2C599.117 262.371 599.662 261.711 600.337 261.22C601.012 260.714 601.726 260.437 602.478 260.391C602.631 260.391 602.754 260.391 602.846 260.391C602.954 260.391 603.046 260.399 603.122 260.414V262.693ZM604.067 269.024C604.067 268.257 604.282 267.589 604.712 267.022C605.157 266.438 605.763 265.993 606.531 265.686C607.298 265.364 608.188 265.203 609.201 265.203C609.738 265.203 610.283 265.241 610.836 265.318C611.404 265.395 611.902 265.517 612.332 265.686V264.927C612.332 264.082 612.079 263.423 611.572 262.947C611.066 262.471 610.337 262.233 609.385 262.233C608.71 262.233 608.073 262.356 607.475 262.601C606.876 262.832 606.239 263.162 605.564 263.591L604.712 261.888C605.51 261.351 606.308 260.952 607.106 260.691C607.92 260.43 608.772 260.299 609.662 260.299C611.273 260.299 612.539 260.729 613.46 261.588C614.396 262.433 614.865 263.637 614.865 265.203V269.692C614.865 269.984 614.911 270.191 615.003 270.314C615.11 270.436 615.287 270.505 615.532 270.521V272.547C615.302 272.593 615.095 272.623 614.911 272.639C614.726 272.654 614.573 272.662 614.45 272.662C613.913 272.662 613.506 272.531 613.23 272.27C612.954 272.01 612.793 271.703 612.747 271.35L612.678 270.659C612.156 271.334 611.488 271.856 610.675 272.224C609.861 272.593 609.04 272.777 608.211 272.777C607.413 272.777 606.7 272.616 606.07 272.293C605.441 271.956 604.95 271.503 604.597 270.935C604.244 270.367 604.067 269.73 604.067 269.024ZM611.734 269.761C611.918 269.562 612.064 269.362 612.171 269.163C612.278 268.963 612.332 268.787 612.332 268.633V267.252C611.902 267.083 611.45 266.96 610.974 266.883C610.498 266.791 610.03 266.745 609.57 266.745C608.649 266.745 607.897 266.929 607.313 267.298C606.746 267.666 606.462 268.173 606.462 268.817C606.462 269.17 606.554 269.508 606.738 269.83C606.937 270.152 607.214 270.413 607.567 270.613C607.935 270.812 608.388 270.912 608.925 270.912C609.478 270.912 610.007 270.805 610.513 270.59C611.02 270.375 611.427 270.099 611.734 269.761ZM624.546 271.925C624.331 272.033 624.063 272.148 623.74 272.27C623.418 272.393 623.05 272.501 622.635 272.593C622.236 272.685 621.822 272.731 621.392 272.731C620.87 272.731 620.387 272.639 619.942 272.455C619.497 272.27 619.136 271.979 618.86 271.58C618.599 271.165 618.469 270.636 618.469 269.991V262.463H616.88V260.506H618.469V256.547H621.001V260.506H623.625V262.463H621.001V269.186C621.032 269.6 621.162 269.907 621.392 270.106C621.638 270.306 621.937 270.406 622.29 270.406C622.643 270.406 622.981 270.344 623.303 270.222C623.625 270.099 623.863 269.999 624.017 269.922L624.546 271.925ZM631.553 272.777C630.601 272.777 629.75 272.616 628.997 272.293C628.245 271.956 627.593 271.495 627.041 270.912C626.503 270.329 626.089 269.669 625.797 268.932C625.506 268.18 625.36 267.382 625.36 266.538C625.36 265.694 625.506 264.896 625.797 264.144C626.089 263.392 626.503 262.732 627.041 262.164C627.593 261.581 628.245 261.128 628.997 260.806C629.765 260.468 630.617 260.299 631.553 260.299C632.489 260.299 633.333 260.468 634.085 260.806C634.853 261.128 635.505 261.581 636.042 262.164C636.595 262.732 637.017 263.392 637.308 264.144C637.6 264.896 637.746 265.694 637.746 266.538C637.746 267.382 637.6 268.18 637.308 268.932C637.017 269.669 636.595 270.329 636.042 270.912C635.505 271.495 634.853 271.956 634.085 272.293C633.333 272.616 632.489 272.777 631.553 272.777ZM627.962 266.561C627.962 267.328 628.123 268.019 628.445 268.633C628.767 269.247 629.197 269.73 629.734 270.083C630.271 270.436 630.878 270.613 631.553 270.613C632.213 270.613 632.811 270.436 633.349 270.083C633.901 269.715 634.338 269.224 634.661 268.61C634.983 267.981 635.144 267.29 635.144 266.538C635.144 265.771 634.983 265.08 634.661 264.466C634.338 263.852 633.901 263.369 633.349 263.016C632.811 262.647 632.213 262.463 631.553 262.463C630.878 262.463 630.271 262.647 629.734 263.016C629.197 263.384 628.767 263.875 628.445 264.489C628.123 265.088 627.962 265.778 627.962 266.561ZM646.76 262.693C645.778 262.709 644.903 262.931 644.136 263.361C643.384 263.791 642.846 264.397 642.524 265.18V272.547H639.992V260.506H642.34V263.2C642.754 262.371 643.299 261.711 643.974 261.22C644.65 260.714 645.363 260.437 646.115 260.391C646.269 260.391 646.392 260.391 646.484 260.391C646.591 260.391 646.683 260.399 646.76 260.414V262.693Z" fill="white"/>
</g>
<g id="Frame 36763">
<rect x="1230.09" y="80" width="164.748" height="164.748" rx="79.1367" fill="#66BEFF" fill-opacity="0.3"/>
<path id="Ownership" d="M1262.34 170.989C1261.16 170.989 1260.09 170.759 1259.14 170.299C1258.19 169.838 1257.36 169.217 1256.67 168.434C1255.98 167.636 1255.45 166.746 1255.06 165.763C1254.69 164.766 1254.51 163.745 1254.51 162.701C1254.51 161.612 1254.71 160.576 1255.11 159.594C1255.51 158.596 1256.06 157.713 1256.77 156.946C1257.47 156.163 1258.3 155.549 1259.25 155.104C1260.22 154.644 1261.26 154.414 1262.38 154.414C1263.55 154.414 1264.61 154.652 1265.56 155.127C1266.53 155.603 1267.35 156.24 1268.02 157.038C1268.71 157.836 1269.24 158.726 1269.61 159.709C1270 160.691 1270.19 161.696 1270.19 162.724C1270.19 163.814 1269.99 164.858 1269.59 165.855C1269.21 166.838 1268.66 167.72 1267.95 168.503C1267.25 169.27 1266.41 169.876 1265.44 170.322C1264.49 170.767 1263.46 170.989 1262.34 170.989ZM1257.13 162.701C1257.13 163.469 1257.26 164.213 1257.5 164.935C1257.75 165.656 1258.09 166.3 1258.54 166.868C1259 167.421 1259.55 167.858 1260.2 168.181C1260.84 168.503 1261.56 168.664 1262.36 168.664C1263.19 168.664 1263.93 168.495 1264.57 168.158C1265.21 167.82 1265.75 167.367 1266.18 166.799C1266.63 166.216 1266.96 165.571 1267.19 164.865C1267.42 164.144 1267.54 163.423 1267.54 162.701C1267.54 161.934 1267.42 161.197 1267.17 160.491C1266.94 159.77 1266.6 159.133 1266.14 158.581C1265.68 158.013 1265.12 157.568 1264.48 157.245C1263.85 156.923 1263.14 156.762 1262.36 156.762C1261.53 156.762 1260.79 156.931 1260.15 157.268C1259.51 157.606 1258.96 158.059 1258.52 158.627C1258.07 159.194 1257.72 159.831 1257.48 160.537C1257.25 161.243 1257.13 161.965 1257.13 162.701ZM1287.52 158.834H1289.94L1284.87 170.874H1282.71L1280.55 165.441L1278.38 170.874H1276.22L1271.13 158.834H1273.55L1277.42 168.411L1279.12 163.968L1277.05 158.857H1279.19L1280.55 162.609L1281.88 158.857H1284.02L1281.97 163.968L1283.68 168.411L1287.52 158.834ZM1302.42 170.874H1299.89V164.129C1299.89 163.008 1299.7 162.187 1299.33 161.665C1298.98 161.144 1298.45 160.883 1297.75 160.883C1297.25 160.883 1296.76 161.005 1296.27 161.251C1295.8 161.497 1295.37 161.834 1294.98 162.264C1294.6 162.678 1294.32 163.162 1294.15 163.714V170.874H1291.62V158.834H1293.92V161.251C1294.23 160.714 1294.63 160.253 1295.12 159.87C1295.63 159.471 1296.2 159.164 1296.82 158.949C1297.45 158.734 1298.12 158.627 1298.83 158.627C1299.55 158.627 1300.14 158.757 1300.6 159.018C1301.08 159.279 1301.44 159.64 1301.71 160.1C1301.98 160.545 1302.17 161.067 1302.26 161.665C1302.37 162.249 1302.42 162.87 1302.42 163.53V170.874ZM1310.81 171.104C1309.88 171.104 1309.03 170.943 1308.26 170.621C1307.51 170.283 1306.85 169.83 1306.3 169.263C1305.75 168.679 1305.32 168.019 1305.01 167.283C1304.72 166.531 1304.58 165.733 1304.58 164.888C1304.58 163.753 1304.84 162.717 1305.36 161.781C1305.88 160.829 1306.61 160.069 1307.55 159.501C1308.48 158.918 1309.58 158.627 1310.84 158.627C1312.1 158.627 1313.18 158.918 1314.08 159.501C1315 160.069 1315.72 160.821 1316.22 161.758C1316.73 162.694 1316.98 163.699 1316.98 164.773C1316.98 164.958 1316.98 165.134 1316.96 165.303C1316.95 165.456 1316.93 165.587 1316.91 165.694H1307.27C1307.31 166.4 1307.51 167.022 1307.84 167.559C1308.2 168.081 1308.64 168.495 1309.18 168.802C1309.72 169.094 1310.29 169.24 1310.91 169.24C1311.58 169.24 1312.22 169.071 1312.82 168.733C1313.43 168.395 1313.85 167.95 1314.06 167.398L1316.22 168.019C1315.96 168.603 1315.56 169.132 1315.03 169.608C1314.51 170.068 1313.88 170.437 1313.16 170.713C1312.44 170.974 1311.66 171.104 1310.81 171.104ZM1307.2 164.014H1314.47C1314.43 163.323 1314.23 162.717 1313.88 162.195C1313.54 161.658 1313.1 161.243 1312.56 160.952C1312.04 160.645 1311.46 160.491 1310.81 160.491C1310.18 160.491 1309.6 160.645 1309.06 160.952C1308.54 161.243 1308.11 161.658 1307.78 162.195C1307.44 162.717 1307.25 163.323 1307.2 164.014ZM1325.82 161.021C1324.84 161.036 1323.96 161.259 1323.19 161.688C1322.44 162.118 1321.9 162.724 1321.58 163.507V170.874H1319.05V158.834H1321.4V161.527C1321.81 160.699 1322.36 160.039 1323.03 159.547C1323.71 159.041 1324.42 158.765 1325.17 158.719C1325.33 158.719 1325.45 158.719 1325.54 158.719C1325.65 158.719 1325.74 158.726 1325.82 158.742V161.021ZM1331.94 171.104C1330.93 171.104 1329.97 170.943 1329.06 170.621C1328.16 170.283 1327.38 169.784 1326.74 169.124L1327.68 167.421C1328.37 168.035 1329.06 168.48 1329.76 168.756C1330.46 169.032 1331.16 169.17 1331.85 169.17C1332.56 169.17 1333.13 169.04 1333.58 168.779C1334.02 168.503 1334.24 168.104 1334.24 167.582C1334.24 167.198 1334.13 166.914 1333.9 166.73C1333.67 166.546 1333.33 166.385 1332.89 166.247C1332.46 166.109 1331.93 165.955 1331.32 165.786C1330.46 165.525 1329.74 165.257 1329.16 164.981C1328.57 164.689 1328.14 164.336 1327.84 163.922C1327.55 163.507 1327.41 162.978 1327.41 162.333C1327.41 161.55 1327.61 160.883 1328.01 160.33C1328.4 159.778 1328.96 159.356 1329.66 159.064C1330.38 158.772 1331.21 158.627 1332.15 158.627C1333.02 158.627 1333.83 158.765 1334.57 159.041C1335.32 159.302 1335.98 159.716 1336.55 160.284L1335.46 161.965C1334.93 161.474 1334.37 161.113 1333.81 160.883C1333.25 160.653 1332.66 160.537 1332.01 160.537C1331.64 160.537 1331.29 160.583 1330.95 160.676C1330.61 160.752 1330.33 160.906 1330.1 161.136C1329.89 161.351 1329.78 161.658 1329.78 162.057C1329.78 162.379 1329.87 162.64 1330.05 162.84C1330.24 163.039 1330.51 163.208 1330.88 163.346C1331.25 163.484 1331.7 163.638 1332.24 163.806C1333.18 164.083 1333.98 164.359 1334.64 164.635C1335.3 164.896 1335.8 165.241 1336.16 165.671C1336.52 166.086 1336.71 166.661 1336.71 167.398C1336.71 168.564 1336.27 169.477 1335.4 170.137C1334.54 170.782 1333.38 171.104 1331.94 171.104ZM1349.77 170.874H1347.23V164.129C1347.23 163.039 1347.03 162.226 1346.63 161.688C1346.24 161.151 1345.68 160.883 1344.95 160.883C1344.51 160.883 1344.05 161.005 1343.57 161.251C1343.1 161.497 1342.68 161.834 1342.31 162.264C1341.94 162.678 1341.67 163.162 1341.5 163.714V170.874H1338.97V154.068H1341.5V161.251C1341.96 160.438 1342.59 159.801 1343.39 159.34C1344.19 158.864 1345.05 158.627 1345.97 158.627C1346.72 158.627 1347.34 158.757 1347.83 159.018C1348.32 159.279 1348.71 159.64 1348.98 160.1C1349.27 160.545 1349.47 161.067 1349.58 161.665C1349.7 162.249 1349.77 162.87 1349.77 163.53V170.874ZM1352.71 170.874V158.834H1355.24V170.874H1352.71ZM1352.71 156.854V154.068H1355.24V156.854H1352.71ZM1365.12 171.104C1364.15 171.104 1363.3 170.874 1362.56 170.414C1361.83 169.953 1361.24 169.355 1360.81 168.618V175.778H1358.28V158.834H1360.51V160.998C1360.97 160.276 1361.57 159.701 1362.31 159.271C1363.05 158.841 1363.87 158.627 1364.77 158.627C1365.6 158.627 1366.36 158.795 1367.05 159.133C1367.74 159.455 1368.34 159.908 1368.85 160.491C1369.35 161.075 1369.75 161.742 1370.02 162.494C1370.31 163.231 1370.46 164.014 1370.46 164.842C1370.46 165.994 1370.23 167.045 1369.77 167.996C1369.32 168.948 1368.69 169.708 1367.88 170.276C1367.08 170.828 1366.16 171.104 1365.12 171.104ZM1364.29 168.94C1364.83 168.94 1365.31 168.825 1365.74 168.595C1366.18 168.365 1366.56 168.058 1366.87 167.674C1367.19 167.29 1367.44 166.853 1367.6 166.362C1367.77 165.871 1367.86 165.364 1367.86 164.842C1367.86 164.29 1367.77 163.768 1367.58 163.277C1367.4 162.786 1367.13 162.356 1366.78 161.988C1366.44 161.619 1366.04 161.328 1365.58 161.113C1365.13 160.898 1364.64 160.791 1364.11 160.791C1363.78 160.791 1363.45 160.852 1363.09 160.975C1362.74 161.098 1362.41 161.266 1362.1 161.481C1361.8 161.696 1361.53 161.949 1361.3 162.241C1361.07 162.533 1360.91 162.84 1360.81 163.162V166.316C1361.03 166.807 1361.31 167.252 1361.66 167.651C1362.02 168.035 1362.42 168.349 1362.89 168.595C1363.35 168.825 1363.81 168.94 1364.29 168.94Z" fill="#166EE6"/>
</g>
</g>
</svg>
